<svg xmlns="http://www.w3.org/2000/svg" width="28" height="28" viewBox="0 0 28 28" fill="none">
    <mask id="mask0_43_1644" style="mask-type:alpha" maskUnits="userSpaceOnUse" x="0" y="0" width="28" height="28">
        <rect x="28" width="28" height="28" transform="rotate(90 28 0)" fill="#D9D9D9"/>
    </mask>
    <g mask="url(#mask0_43_1644)">
        <path d="M13.125 19.3982L13.125 6.125C13.125 5.87669 13.2088 5.66883 13.3764 5.50142C13.5438 5.33381 13.7517 5.25 14 5.25C14.2483 5.25 14.4562 5.33381 14.6236 5.50142C14.7912 5.66883 14.875 5.87669 14.875 6.125L14.875 19.3982L20.9058 13.3674C21.0792 13.1939 21.2822 13.1083 21.5148 13.1104C21.7473 13.1128 21.9541 13.2043 22.1352 13.3852C22.3041 13.5662 22.3916 13.7711 22.3977 14C22.4037 14.2289 22.3162 14.4338 22.1352 14.6148L14.7382 22.0118C14.6289 22.1211 14.5137 22.1981 14.3926 22.2428C14.2714 22.2877 14.1406 22.3102 14 22.3102C13.8594 22.3102 13.7285 22.2877 13.6074 22.2428C13.4863 22.1981 13.3711 22.1211 13.2618 22.0118L5.86482 14.6148C5.70324 14.4532 5.6206 14.2532 5.61691 14.0146C5.61321 13.776 5.69585 13.5662 5.86482 13.3852C6.04585 13.2043 6.25371 13.1139 6.48841 13.1139C6.7233 13.1139 6.93125 13.2043 7.11228 13.3852L13.125 19.3982Z" fill="#232323"/>
    </g>
</svg>