<svg xmlns="http://www.w3.org/2000/svg" width="24" height="24" viewBox="0 0 24 24" fill="none">
    <mask id="mask0_18_514" style="mask-type:alpha" maskUnits="userSpaceOnUse" x="0" y="0" width="24" height="24">
        <rect width="24" height="24" fill="#D9D9D9"/>
    </mask>
    <g mask="url(#mask0_18_514)">
        <path d="M5.30775 20.5C4.80258 20.5 4.375 20.325 4.025 19.975C3.675 19.625 3.5 19.1974 3.5 18.6923V5.30775C3.5 4.80258 3.675 4.375 4.025 4.025C4.375 3.675 4.80258 3.5 5.30775 3.5H18.6923C19.1974 3.5 19.625 3.675 19.975 4.025C20.325 4.375 20.5 4.80258 20.5 5.30775V18.6923C20.5 19.1974 20.325 19.625 19.975 19.975C19.625 20.325 19.1974 20.5 18.6923 20.5H5.30775ZM5 16.5845V18.6923C5 18.7692 5.03208 18.8398 5.09625 18.9038C5.16025 18.9679 5.23075 19 5.30775 19H18.6923C18.7692 19 18.8398 18.9679 18.9038 18.9038C18.9679 18.8398 19 18.7692 19 18.6923V9.923L13.7788 15.7865C13.6083 15.984 13.3932 16.0852 13.1337 16.0903C12.8741 16.0954 12.6538 16.0077 12.473 15.827L9.1155 12.4692L5 16.5845ZM5 14.4462L8.48275 10.9635C8.66342 10.7827 8.87433 10.6923 9.1155 10.6923C9.3565 10.6923 9.56733 10.7827 9.748 10.9635L13.0848 14.3L19 7.673V5.30775C19 5.23075 18.9679 5.16025 18.9038 5.09625C18.8398 5.03208 18.7692 5 18.6923 5H5.30775C5.23075 5 5.16025 5.03208 5.09625 5.09625C5.03208 5.16025 5 5.23075 5 5.30775V14.4462ZM5 9.923V7.673V14.3V10.3307V16.5845V12.4692V16.5V9.923ZM5 14.4462V5V14.3V10.3307V14.4462ZM5 16.5845V12.4692V16.5V9.923V19V16.5845Z" fill="#A3A3A3"/>
    </g>
</svg>