<svg xmlns="http://www.w3.org/2000/svg" width="16" height="16" viewBox="0 0 16 16" fill="none">
    <mask id="mask0_31_582" style="mask-type:alpha" maskUnits="userSpaceOnUse" x="0" y="0" width="16" height="16">
        <rect width="16" height="16" fill="#D9D9D9"/>
    </mask>
    <g mask="url(#mask0_31_582)">
        <path d="M7.2615 14.3334C7.03416 14.3334 6.83783 14.258 6.6725 14.1071C6.50705 13.9563 6.40638 13.7706 6.3705 13.5501L6.20766 12.3026C6.02911 12.2428 5.846 12.1591 5.65833 12.0514C5.47077 11.9436 5.30305 11.8282 5.15516 11.7052L4 12.1962C3.79055 12.2886 3.58011 12.2975 3.36866 12.2231C3.15711 12.1487 2.99277 12.0137 2.87566 11.8181L2.12433 10.5154C2.00722 10.3197 1.9735 10.1127 2.02316 9.89425C2.07272 9.67591 2.18639 9.4958 2.36416 9.35392L3.36283 8.60392C3.3475 8.5048 3.33661 8.40525 3.33016 8.30525C3.32372 8.20525 3.3205 8.10564 3.3205 8.00642C3.3205 7.91164 3.32372 7.8153 3.33016 7.71741C3.33661 7.61953 3.3475 7.51247 3.36283 7.39625L2.36416 6.64625C2.18639 6.50436 2.07377 6.32314 2.02633 6.10258C1.97889 5.88214 2.01372 5.67403 2.13083 5.47825L2.87566 4.19491C2.99277 4.00347 3.15711 3.86953 3.36866 3.79308C3.58011 3.71653 3.79055 3.72441 4 3.81675L5.14866 4.30141C5.30944 4.17408 5.48105 4.05764 5.6635 3.95208C5.84594 3.84653 6.02522 3.76169 6.20133 3.69758L6.3705 2.45008C6.40638 2.22953 6.50705 2.04386 6.6725 1.89308C6.83783 1.74219 7.03416 1.66675 7.2615 1.66675H8.7385C8.96583 1.66675 9.16216 1.74219 9.3275 1.89308C9.49294 2.04386 9.59361 2.22953 9.6295 2.45008L9.79233 3.70391C9.99233 3.77658 10.1733 3.86141 10.3352 3.95841C10.4972 4.05541 10.6607 4.16975 10.8257 4.30141L12.0065 3.81675C12.2158 3.72441 12.4263 3.71653 12.6378 3.79308C12.8494 3.86953 13.0137 4.00347 13.1307 4.19491L13.8757 5.48475C13.9928 5.68042 14.0265 5.88747 13.9768 6.10591C13.9273 6.32425 13.8136 6.50436 13.6358 6.64625L12.6115 7.41541C12.6354 7.52308 12.6484 7.62375 12.6507 7.71741C12.6528 7.81097 12.6538 7.90519 12.6538 8.00008C12.6538 8.09064 12.6517 8.18275 12.6473 8.27641C12.6431 8.36997 12.6278 8.47703 12.6013 8.59758L13.6063 9.35392C13.7841 9.4958 13.8989 9.67591 13.9507 9.89425C14.0023 10.1127 13.9696 10.3197 13.8525 10.5154L13.0973 11.8116C12.9803 12.0074 12.815 12.1424 12.6013 12.2167C12.3877 12.2911 12.1761 12.2821 11.9667 12.1897L10.8257 11.6987C10.6607 11.8304 10.4923 11.9469 10.3205 12.0481C10.1487 12.1494 9.97266 12.2321 9.79233 12.2962L9.6295 13.5501C9.59361 13.7706 9.49294 13.9563 9.3275 14.1071C9.16216 14.258 8.96583 14.3334 8.7385 14.3334H7.2615ZM7.33333 13.3334H8.64366L8.88333 11.5476C9.22355 11.4587 9.53444 11.3324 9.816 11.1687C10.0977 11.005 10.3693 10.7945 10.6308 10.5372L12.2872 11.2334L12.9437 10.1001L11.4975 9.01042C11.5531 8.83775 11.5908 8.66847 11.6108 8.50258C11.6309 8.3368 11.641 8.1693 11.641 8.00008C11.641 7.82653 11.6309 7.65903 11.6108 7.49758C11.5908 7.33603 11.5531 7.17103 11.4975 7.00258L12.9563 5.90008L12.3 4.76675L10.6243 5.47308C10.4012 5.23464 10.1339 5.02397 9.8225 4.84108C9.51094 4.65819 9.19577 4.52869 8.877 4.45258L8.66666 2.66675H7.34366L7.123 4.44625C6.78289 4.52658 6.46883 4.64964 6.18083 4.81541C5.89272 4.9813 5.61789 5.19497 5.35633 5.45641L3.7 4.76675L3.04366 5.90008L4.48333 6.97308C4.42777 7.1313 4.38889 7.29586 4.36666 7.46675C4.34444 7.63764 4.33333 7.81753 4.33333 8.00642C4.33333 8.17997 4.34444 8.35008 4.36666 8.51675C4.38889 8.68342 4.42566 8.84797 4.477 9.01042L3.04366 10.1001L3.7 11.2334L5.35 10.5334C5.603 10.7932 5.8735 11.006 6.1615 11.1719C6.44961 11.3377 6.768 11.465 7.11666 11.5539L7.33333 13.3334ZM8.00766 10.0001C8.56233 10.0001 9.03433 9.80542 9.42366 9.41608C9.813 9.02675 10.0077 8.55475 10.0077 8.00008C10.0077 7.44542 9.813 6.97341 9.42366 6.58408C9.03433 6.19475 8.56233 6.00008 8.00766 6.00008C7.44611 6.00008 6.97238 6.19475 6.5865 6.58408C6.20061 6.97341 6.00766 7.44542 6.00766 8.00008C6.00766 8.55475 6.20061 9.02675 6.5865 9.41608C6.97238 9.80542 7.44611 10.0001 8.00766 10.0001Z" fill="#A3A3A3"/>
    </g>
</svg>
