<svg width="100" height="100" viewBox="0 0 100 100" fill="none" xmlns="http://www.w3.org/2000/svg">
<g id="Frame 117">
<rect width="100" height="100" rx="50" fill="#232323"/>
<g id="mic">
<mask id="mask0_31_1150" style="mask-type:alpha" maskUnits="userSpaceOnUse" x="24" y="24" width="52" height="52">
<rect id="Bounding box" x="24" y="24" width="52" height="52" fill="#D9D9D9"/>
</mask>
<g mask="url(#mask0_31_1150)">
<path id="mic_2" d="M49.9999 53.2498C48.4861 53.2498 47.2049 52.7255 46.1562 51.6768C45.1076 50.6282 44.5832 49.3469 44.5832 47.8332V34.8332C44.5832 33.3194 45.1076 32.0382 46.1562 30.9895C47.2049 29.9408 48.4861 29.4165 49.9999 29.4165C51.5137 29.4165 52.7949 29.9408 53.8436 30.9895C54.8922 32.0382 55.4166 33.3194 55.4166 34.8332V47.8332C55.4166 49.3469 54.8922 50.6282 53.8436 51.6768C52.7949 52.7255 51.5137 53.2498 49.9999 53.2498ZM48.3749 67.3332V61.8163C45.1498 61.444 42.3859 60.1191 40.0831 57.8415C37.7806 55.5637 36.4321 52.7873 36.0374 49.5123C35.9792 49.0512 36.1 48.6561 36.3997 48.3272C36.6998 47.9978 37.0804 47.8332 37.5416 47.8332C38.0027 47.8332 38.3887 47.9922 38.6997 48.3104C39.0109 48.6282 39.218 49.0176 39.3209 49.4788C39.7153 52.1318 40.9284 54.3263 42.9604 56.0622C44.9924 57.7984 47.3389 58.6665 49.9999 58.6665C52.697 58.6665 55.0526 57.7894 57.0665 56.0351C59.0804 54.2812 60.2845 52.0957 60.6789 49.4788C60.7818 49.0176 60.9889 48.6282 61.3002 48.3104C61.6111 47.9922 61.9971 47.8332 62.4582 47.8332C62.9194 47.8332 63.3 47.9978 63.6001 48.3272C63.8998 48.6561 64.0206 49.0512 63.9624 49.5123C63.5678 52.715 62.2282 55.4699 59.9438 57.7771C57.6591 60.0839 54.8861 61.4303 51.6249 61.8163V67.3332C51.6249 67.7943 51.4693 68.1803 51.158 68.4913C50.8471 68.8025 50.461 68.9582 49.9999 68.9582C49.5388 68.9582 49.1527 68.8025 48.8418 68.4913C48.5305 68.1803 48.3749 67.7943 48.3749 67.3332ZM49.9999 49.9998C50.6138 49.9998 51.1284 49.7922 51.5437 49.3769C51.9589 48.9616 52.1666 48.4471 52.1666 47.8332V34.8332C52.1666 34.2193 51.9589 33.7047 51.5437 33.2894C51.1284 32.8741 50.6138 32.6665 49.9999 32.6665C49.386 32.6665 48.8714 32.8741 48.4562 33.2894C48.0409 33.7047 47.8332 34.2193 47.8332 34.8332V47.8332C47.8332 48.4471 48.0409 48.9616 48.4562 49.3769C48.8714 49.7922 49.386 49.9998 49.9999 49.9998Z" fill="white"/>
</g>
</g>
</g>
</svg>
