<svg width="20" height="20" viewBox="0 0 20 20" fill="none" xmlns="http://www.w3.org/2000/svg">
<g id="translate">
<mask id="mask0_43_1510" style="mask-type:alpha" maskUnits="userSpaceOnUse" x="0" y="0" width="20" height="20">
<rect id="Bounding box" width="20" height="20" fill="#D9D9D9"/>
</mask>
<g mask="url(#mask0_43_1510)">
<path id="translate_2" d="M12.1858 15.3748L11.3893 17.5238C11.3445 17.6392 11.2699 17.7335 11.1658 17.8067C11.0616 17.8799 10.9449 17.9165 10.8156 17.9165C10.602 17.9165 10.4311 17.8286 10.3029 17.6528C10.1747 17.4771 10.1527 17.2851 10.237 17.0767L13.476 8.71777C13.5293 8.60235 13.6068 8.50943 13.7083 8.43902C13.8098 8.36846 13.9225 8.33318 14.0464 8.33318H14.5112C14.6351 8.33318 14.7478 8.36846 14.8493 8.43902C14.9507 8.50943 15.0281 8.60235 15.0816 8.71777L18.3204 17.0896C18.4048 17.2894 18.3851 17.4771 18.2612 17.6528C18.1372 17.8286 17.9684 17.9165 17.7547 17.9165C17.617 17.9165 17.4981 17.8799 17.3981 17.8067C17.2982 17.7335 17.2216 17.635 17.1683 17.5111L16.3718 15.3748H12.1858ZM7.48557 11.3251L3.78036 15.0255C3.66495 15.1462 3.52203 15.2087 3.35161 15.213C3.18134 15.2173 3.03155 15.1548 2.90224 15.0255C2.78155 14.9048 2.7212 14.7584 2.7212 14.5863C2.7212 14.4144 2.78155 14.268 2.90224 14.1473L6.60724 10.4342C6.12654 9.94811 5.6696 9.37117 5.23641 8.70339C4.80307 8.03561 4.44648 7.35666 4.16661 6.66652H5.49182C5.73224 7.17082 6.02474 7.67513 6.36932 8.17943C6.71391 8.6836 7.08599 9.14242 7.48557 9.55589C8.07738 8.95867 8.63717 8.23353 9.16495 7.38048C9.69273 6.52742 10.0656 5.73388 10.2837 4.99985H2.03516C1.8578 4.99985 1.70932 4.93999 1.58974 4.82027C1.47002 4.70068 1.41016 4.55221 1.41016 4.37485C1.41016 4.19749 1.47002 4.04902 1.58974 3.92943C1.70932 3.80971 1.8578 3.74985 2.03516 3.74985H6.87495V3.02881C6.87495 2.85145 6.93481 2.70291 7.05453 2.58318C7.17412 2.4636 7.32259 2.40381 7.49995 2.40381C7.67731 2.40381 7.82578 2.4636 7.94536 2.58318C8.06509 2.70291 8.12495 2.85145 8.12495 3.02881V3.74985H12.9647C13.1421 3.74985 13.2906 3.80971 13.4102 3.92943C13.5299 4.04902 13.5897 4.19749 13.5897 4.37485C13.5897 4.55221 13.5299 4.70068 13.4102 4.82027C13.2906 4.93999 13.1421 4.99985 12.9647 4.99985H11.5495C11.2793 5.93568 10.8485 6.91402 10.2572 7.93485C9.66585 8.95568 9.03467 9.79735 8.3637 10.4598L10.4197 12.5655L9.94703 13.8492L7.48557 11.3251ZM12.5864 14.269H15.971L14.2787 9.72256L12.5864 14.269Z" fill="#A3A3A3"/>
</g>
</g>
</svg>
